<?xml version="1.0" encoding="UTF-8"?>
<svg xmlns="http://www.w3.org/2000/svg" viewBox="0 0 2002 1410.57">
  <defs>
    <style>
      .cls-1 {
        font-size: 72px;
      }

      .cls-1, .cls-2 {
        font-family: Timeless-Normal, Timeless;
      }

      .cls-1, .cls-2, .cls-3 {
        fill: #fff;
      }

      .cls-2 {
        font-size: 181px;
      }

      .cls-4 {
        letter-spacing: .22em;
      }

      .cls-5 {
        letter-spacing: .21em;
      }

      .cls-6 {
        letter-spacing: .21em;
      }

      .cls-7 {
        letter-spacing: .16em;
      }

      .cls-8 {
        letter-spacing: .18em;
      }

      .cls-9 {
        letter-spacing: .18em;
      }

      .cls-10 {
        letter-spacing: .13em;
      }

      .cls-11 {
        letter-spacing: .13em;
      }

      .cls-12 {
        letter-spacing: .13em;
      }

      .cls-13 {
        letter-spacing: .13em;
      }

      .cls-14 {
        letter-spacing: .14em;
      }

      .cls-15 {
        letter-spacing: .15em;
      }

      .cls-16 {
        letter-spacing: .14em;
      }

      .cls-17 {
        letter-spacing: .14em;
      }

      .cls-18 {
        letter-spacing: .11em;
      }

      .cls-19 {
        letter-spacing: .11em;
      }

      .cls-20 {
        letter-spacing: .11em;
      }

      .cls-21 {
        letter-spacing: .11em;
      }

      .cls-22 {
        letter-spacing: .09em;
      }

      .cls-23 {
        letter-spacing: .08em;
      }

      .cls-24 {
        letter-spacing: .08em;
      }

      .cls-25 {
        letter-spacing: .12em;
      }

      .cls-26 {
        letter-spacing: .1em;
      }

      .cls-27 {
        letter-spacing: .1em;
      }

      .cls-28 {
        letter-spacing: .12em;
      }

      .cls-29 {
        letter-spacing: .13em;
      }

      .cls-30 {
        letter-spacing: .04em;
      }
    </style>
  </defs>
  <g id="Dessin">
    <polyline id="ligne" class="cls-3" points="502.5 881.72 1497.5 881.72 1497.5 870.59 502.5 870.59"/>
    <g id="Oiseaux">
      <path id="Oiseau_G2" data-name="Oiseau G2" class="cls-3" d="M793.04,491.88c-.47-.23-7.45-4.11-17.43-4.15-4.45,0-9.51.82-14.61,3.21-2.07.96-4.12,2.2-6.14,3.7-.79-2.9-1.86-5.53-3.16-7.87-2.11-3.82-4.77-6.87-7.51-9.25-4.13-3.58-8.43-5.69-11.74-6.94-3.31-1.25-5.64-1.65-5.91-1.7l-1.81,10.98.56-3.39-.59,3.38h.04c.57.1,6.05,1.31,10.94,5.08,2.46,1.88,4.78,4.36,6.53,7.7,1.74,3.35,2.96,7.62,2.97,13.37v.45s9.98,3.45,9.98,3.45c3.54-4.6,7.12-7.27,10.55-8.89,3.43-1.61,6.78-2.16,9.89-2.16,3.46,0,6.59.72,8.81,1.45,1.11.36,1.98.72,2.55.98.28.13.49.23.61.29l.12.06h0s1.52-2.82,1.52-2.82l3.82-6.94h0Z"/>
      <path id="Oiseau._G1" data-name="Oiseau. G1" class="cls-3" d="M838.55,426.87c-.47-.23-4.93-2.73-11.53-2.76-2.94,0-6.31.55-9.7,2.14-.52.24-1.03.52-1.55.81-.34-.83-.71-1.62-1.13-2.37-1.41-2.54-3.18-4.57-4.99-6.15-2.73-2.37-5.55-3.74-7.71-4.56-2.16-.82-3.7-1.08-3.97-1.13l-1.81,10.98.49-2.97-.54,2.96.12.02c.63.12,3.53.93,5.86,2.88,1.18.98,2.25,2.2,3.06,3.84.81,1.65,1.4,3.76,1.4,6.74v.25s9.98,3.45,9.98,3.45c1.93-2.5,3.78-3.85,5.5-4.67,1.73-.81,3.39-1.08,4.98-1.09,1.77,0,3.42.38,4.58.76.58.19,1.03.38,1.31.5l.28.13.03.02,1.32-2.51,3.99-7.26h0Z"/>
      <path id="Oiseau_D2" data-name="Oiseau D2" class="cls-3" d="M1301.23,492.76l.5,3.06-1.81-10.98c-.48.1-7.49,1.23-14.88,6.46-3.68,2.62-7.46,6.33-10.28,11.42-1.3,2.34-2.37,4.97-3.16,7.87-2.02-1.5-4.08-2.74-6.14-3.7-5.1-2.39-10.16-3.22-14.61-3.22-9.98.04-16.97,3.93-17.43,4.15l3.83,6.96,1.51,2.8h.03s0-.01,0-.01l-.02-.04.02.04h.02c.55-.32,5.76-2.8,12.05-2.78,3.1,0,6.45.56,9.88,2.16,3.43,1.62,7.01,4.29,10.55,8.89l9.98-3.45v-.45c0-6.03,1.34-10.43,3.23-13.85,1.42-2.56,3.18-4.59,5.07-6.24,2.83-2.46,5.97-4.03,8.38-4.94,1.2-.46,2.21-.75,2.89-.92.34-.09.59-.14.75-.17l.15-.03h.01s-.53-3.06-.53-3.06Z"/>
      <path id="oiseau_D1" data-name="oiseau D1" class="cls-3" d="M1230.29,439.77l-1.81-10.98c-.48.1-4.97.82-9.85,4.26-2.43,1.72-4.94,4.19-6.82,7.59-.41.75-.79,1.54-1.13,2.37-.51-.29-1.03-.57-1.55-.81-3.39-1.59-6.77-2.14-9.7-2.14-6.6.04-11.06,2.54-11.53,2.77l4.05,7.36-.06-.11,1.33,2.53s.17-.09.49-.23c.97-.42,3.23-1.2,5.72-1.19,1.59,0,3.26.28,4.98,1.09,1.72.81,3.57,2.16,5.51,4.67l9.98-3.46v-.23c0-3.28.71-5.51,1.66-7.22.71-1.28,1.59-2.3,2.55-3.14,1.44-1.25,3.09-2.08,4.35-2.56.63-.24,1.16-.39,1.49-.48l.35-.08-.03-.14.02.14Z"/>
    </g>
    <g id="Traits">
      <rect id="T3" class="cls-3" x="994.43" y="584.79" width="11.13" height="22.26"/>
      <rect id="T2" class="cls-3" x="994.43" y="540.27" width="11.13" height="22.26"/>
      <rect id="T1" class="cls-3" x="994.43" y="495.74" width="11.13" height="22.26"/>
    </g>
    <path id="Dessin_G" data-name="Dessin G" class="cls-3" d="M1531.6,826.16c-1.72-292.15-239.05-528.44-531.59-528.45-292.56,0-529.89,236.29-531.61,528.45h-57.94v11.13h63.51s1052.06,0,1052.06,0h63.51v-11.13h0s-57.94,0-57.94,0ZM892.1,320.05c34.81-7.34,70.91-11.21,107.91-11.21,36.99,0,73.08,3.87,107.89,11.21v45.41l-107.9,78.86-96.42-70.47h81.34v-11.13h-92.82v-42.67ZM566.31,826.16c.72-.65,1.46-1.31,2.24-2.02,17.71-15.86,51.51-45.2,80.84-70.54,14.67-12.67,28.23-24.35,38.12-32.86,4.95-4.26,8.97-7.72,11.77-10.12,1.35-1.16,2.41-2.07,3.14-2.7l47.31-7.36,126.11-87.98-17.64,86.42-48.64,9.83-64.37,117.33h-178.88ZM757.88,826.16l58.94-107.45,50.8-10.27,19.95-97.76,110.72,99.69,32.16,7.78,77.62,108h-350.2ZM1121.78,826.16l-84.7-117.84-33.43-8.09-29.07-26.18,28.45-21.67.36.47,115.49-88.72h0l25.41-19.35-33.03,112.99,53.68-5.73,72.43,174.13h-115.58ZM1249.42,826.16l-77.4-186.08-45.41,4.85,30.62-104.78,111.37,100.28,32.3,7.81,140.67,177.91h-192.15ZM1455.75,826.16l-148.51-187.83-33.29-8.05-119.28-107.41-42.57,32.43h0s-.06.05-.06.05l-93.38,71.14,54.7-97.79-9.71-5.43-59.32,106.04h-9.09l-59.32-106.04-9.71,5.43,55.29,98.84-94.03-72.24-6.78,8.83,109.45,84.09-23.97,18.26-81.65-73.52-139.04,97-47.9,7.45-1.2,1.03s-24.88,21.35-54.2,46.69v-61.18c6.11,7.03,13.34,11.19,20.04,13.51,6.91,2.4,13.28,2.94,17.78,2.94,3.94,0,6.46-.42,6.71-.46l-1.47-8.61-.38-2.36s-1.9.3-4.85.3c-4.8,0-12.36-.82-19.52-4.69-3.59-1.94-7.12-4.61-10.31-8.41-3.06-3.64-5.83-8.34-7.98-14.5v-21.43c6.11,7.03,13.34,11.19,20.04,13.51,6.91,2.4,13.28,2.94,17.78,2.94,3.94,0,6.46-.42,6.71-.46l-1.47-8.61-.38-2.36s-1.9.3-4.85.3c-4.8,0-12.36-.82-19.52-4.69-3.59-1.94-7.12-4.61-10.31-8.41-3.06-3.64-5.83-8.34-7.98-14.5v-21.43c6.11,7.03,13.34,11.19,20.04,13.51,6.91,2.4,13.28,2.94,17.78,2.94,3.94,0,6.46-.42,6.71-.46l-1.47-8.61-.38-2.36s-1.9.3-4.85.3c-4.8,0-12.36-.82-19.52-4.69-3.59-1.94-7.12-4.61-10.31-8.41-3.06-3.64-5.83-8.34-7.98-14.5v-21.43c6.11,7.03,13.34,11.19,20.04,13.51,6.91,2.4,13.28,2.94,17.78,2.94,3.94,0,6.46-.42,6.7-.46l-1.47-8.58-.39-2.39s-1.9.3-4.85.3c-4.8,0-12.36-.82-19.52-4.69-3.59-1.94-7.12-4.61-10.31-8.41-3.19-3.8-6.08-8.74-8.27-15.3l-5.28-15.83-5.28,15.83c-2.19,6.56-5.08,11.5-8.27,15.3-4.79,5.68-10.34,8.9-15.71,10.78-5.36,1.87-10.53,2.33-14.12,2.32-1.57,0-2.84-.08-3.68-.17-.42-.04-.74-.08-.93-.11l-.2-.03h-.03s-.39,2.42-.39,2.42l.41-2.42-1.88,10.97c.24.04,2.76.46,6.7.46,5.99,0,15.35-.95,24.79-6.02,4.51-2.43,9.01-5.83,13.02-10.44v21.44c-2.15,6.16-4.92,10.86-7.98,14.5-4.79,5.68-10.34,8.9-15.71,10.78-5.36,1.87-10.53,2.33-14.12,2.32-1.57,0-2.84-.09-3.68-.17-.42-.04-.74-.08-.93-.11l-.2-.03h0s-1.88,10.97-1.88,10.97c.24.04,2.77.46,6.71.46,5.99,0,15.35-.95,24.79-6.02,4.51-2.43,9.01-5.83,13.02-10.44v21.44c-2.15,6.16-4.92,10.86-7.98,14.5-4.79,5.68-10.34,8.9-15.71,10.78-5.36,1.87-10.53,2.33-14.12,2.32-1.57,0-2.84-.09-3.68-.17-.42-.04-.74-.08-.93-.11l-.2-.03h0s-1.88,10.97-1.88,10.97c.24.04,2.77.46,6.71.46,5.99,0,15.35-.95,24.79-6.02,4.51-2.43,9.01-5.83,13.02-10.44v21.44c-2.15,6.16-4.92,10.86-7.98,14.5-4.79,5.68-10.34,8.9-15.71,10.78-5.36,1.87-10.53,2.33-14.12,2.32-1.57,0-2.84-.09-3.68-.17-.42-.04-.74-.08-.93-.11l-.2-.03h0s-1.88,10.97-1.88,10.97c.24.04,2.77.46,6.71.46,5.99,0,15.35-.95,24.79-6.02,4.51-2.43,9.01-5.83,13.02-10.44v70.81c-2.82,2.44-5.65,4.89-8.48,7.34-18.46,15.99-36.91,32.06-50.77,44.29-6.93,6.12-12.71,11.27-16.79,15.01-2.04,1.87-3.66,3.38-4.82,4.52-.09.09-.16.16-.25.25h-70.39c.86-142.49,58.92-271.36,152.43-364.87,67.36-67.36,153.08-116.33,249.01-138.77v48.59s113.46,82.93,113.46,82.93v19.43h11.13v-19.44l113.46-82.93v-48.59c95.93,22.44,181.65,71.41,249.02,138.77,93.5,93.51,151.57,222.38,152.42,364.87h-64.72Z"/>
  </g>
  <g id="Texte">
    <text class="cls-2" transform="translate(112.03 1114.65)"><tspan class="cls-7" x="0" y="0">LA G</tspan><tspan class="cls-9" x="525.62" y="0">R</tspan><tspan class="cls-30" x="669.69" y="0">A</tspan><tspan class="cls-5" x="803.45" y="0">V</tspan><tspan class="cls-7" x="963.99" y="0">IS</tspan><tspan class="cls-8" x="1169.97" y="0">T</tspan><tspan class="cls-7" x="1303.54" y="0">E</tspan><tspan class="cls-4" x="1434.22" y="0">R</tspan><tspan class="cls-6" x="1586.26" y="0">I</tspan><tspan class="cls-7" x="1674.77" y="0">E</tspan></text>
    <text class="cls-1" transform="translate(234.33 1249.61)"><tspan class="cls-24" x="0" y="0">Gra</tspan><tspan class="cls-15" x="125.71" y="0">v</tspan><tspan class="cls-28" x="170.57" y="0">u</tspan><tspan class="cls-19" x="216.5" y="0">r</tspan><tspan class="cls-26" x="247.89" y="0">e</tspan><tspan class="cls-23" x="289.22" y="0">s &amp; </tspan><tspan class="cls-18" x="435.16" y="0">d</tspan><tspan class="cls-24" x="480.59" y="0">éc</tspan><tspan class="cls-22" x="557.56" y="0">o</tspan><tspan class="cls-20" x="601.98" y="0">u</tspan><tspan class="cls-16" x="647.34" y="0">p</tspan><tspan class="cls-26" x="695.36" y="0">e</tspan><tspan class="cls-23" x="736.69" y="0">s l</tspan><tspan class="cls-14" x="821.36" y="0">a</tspan><tspan class="cls-11" x="864.7" y="0">s</tspan><tspan class="cls-24" x="902.36" y="0">er </tspan><tspan class="cls-17" x="998.11" y="0">p</tspan><tspan class="cls-23" x="1046.14" y="0">e</tspan><tspan class="cls-29" x="1085.52" y="0">r</tspan><tspan class="cls-13" x="1118.06" y="0">s</tspan><tspan class="cls-21" x="1155.29" y="0">o</tspan><tspan class="cls-25" x="1200.86" y="0">n</tspan><tspan class="cls-24" x="1247.23" y="0">n</tspan><tspan class="cls-12" x="1290.43" y="0">a</tspan><tspan class="cls-20" x="1333.19" y="0">l</tspan><tspan class="cls-27" x="1359.19" y="0">i</tspan><tspan class="cls-10" x="1384.96" y="0">s</tspan><tspan class="cls-23" x="1422.62" y="0">é</tspan><tspan class="cls-26" x="1462" y="0">e</tspan><tspan class="cls-24" x="1503.33" y="0">s</tspan></text>
  </g>
</svg>