<?xml version="1.0" encoding="UTF-8"?>
<svg xmlns="http://www.w3.org/2000/svg" viewBox="0 0 1762.37 819.31">
  <defs>
    <style>
      .cls-1 {
        fill: #fff;
      }
    </style>
  </defs>
  <g id="Dessin">
    <polyline id="ligne" class="cls-1" points="382.69 584.01 1377.69 584.01 1377.69 572.88 382.69 572.88"/>
    <g id="Oiseaux">
      <path id="Oiseau_G2" data-name="Oiseau G2" class="cls-1" d="M673.23,194.16c-.47-.23-7.45-4.11-17.43-4.15-4.45,0-9.51.82-14.61,3.21-2.07.96-4.12,2.2-6.14,3.7-.79-2.9-1.86-5.53-3.16-7.87-2.11-3.82-4.77-6.87-7.51-9.25-4.13-3.58-8.43-5.69-11.74-6.94-3.31-1.25-5.64-1.65-5.91-1.7l-1.81,10.98.56-3.39-.59,3.38h.04c.57.1,6.05,1.31,10.94,5.08,2.46,1.88,4.78,4.36,6.53,7.7,1.74,3.35,2.96,7.62,2.97,13.37v.45s9.98,3.45,9.98,3.45c3.54-4.6,7.12-7.27,10.55-8.89,3.43-1.61,6.78-2.16,9.89-2.16,3.46,0,6.59.72,8.81,1.45,1.11.36,1.98.72,2.55.98.28.13.49.23.61.29l.12.06h0s1.52-2.82,1.52-2.82l3.82-6.94h0Z"/>
      <path id="Oiseau._G1" data-name="Oiseau. G1" class="cls-1" d="M718.74,129.15c-.47-.23-4.93-2.73-11.53-2.76-2.94,0-6.31.55-9.7,2.14-.52.24-1.03.52-1.55.81-.34-.83-.71-1.62-1.13-2.37-1.41-2.54-3.18-4.57-4.99-6.15-2.73-2.37-5.55-3.74-7.71-4.56-2.16-.82-3.7-1.08-3.97-1.13l-1.81,10.98.49-2.97-.54,2.96.12.02c.63.12,3.53.93,5.86,2.88,1.18.98,2.25,2.2,3.06,3.84.81,1.65,1.4,3.76,1.4,6.74v.25s9.98,3.45,9.98,3.45c1.93-2.5,3.78-3.85,5.5-4.67,1.73-.81,3.39-1.08,4.98-1.09,1.77,0,3.42.38,4.58.76.58.19,1.03.38,1.31.5l.28.13.03.02,1.32-2.51,3.99-7.26h0Z"/>
      <path id="Oiseau_D2" data-name="Oiseau D2" class="cls-1" d="M1181.42,195.04l.5,3.06-1.81-10.98c-.48.1-7.49,1.23-14.88,6.46-3.68,2.62-7.46,6.33-10.28,11.42-1.3,2.34-2.37,4.97-3.16,7.87-2.02-1.5-4.08-2.74-6.14-3.7-5.1-2.39-10.16-3.22-14.61-3.22-9.98.04-16.97,3.93-17.43,4.15l3.83,6.96,1.51,2.8h.03s0-.01,0-.01l-.02-.04.02.04h.02c.55-.32,5.76-2.8,12.05-2.78,3.1,0,6.45.56,9.88,2.16,3.43,1.62,7.01,4.29,10.55,8.89l9.98-3.45v-.45c0-6.03,1.34-10.43,3.23-13.85,1.42-2.56,3.18-4.59,5.07-6.24,2.83-2.46,5.97-4.03,8.38-4.94,1.2-.46,2.21-.75,2.89-.92.34-.09.59-.14.75-.17l.15-.03h.01s-.53-3.06-.53-3.06Z"/>
      <path id="oiseau_D1" data-name="oiseau D1" class="cls-1" d="M1110.48,142.05l-1.81-10.98c-.48.1-4.97.82-9.85,4.26-2.43,1.72-4.94,4.19-6.82,7.59-.41.75-.79,1.54-1.13,2.37-.51-.29-1.03-.57-1.55-.81-3.39-1.59-6.77-2.14-9.7-2.14-6.6.04-11.06,2.54-11.53,2.77l4.05,7.36-.06-.11,1.33,2.53s.17-.09.49-.23c.97-.42,3.23-1.2,5.72-1.19,1.59,0,3.26.28,4.98,1.09,1.72.81,3.57,2.16,5.51,4.67l9.98-3.46v-.23c0-3.28.71-5.51,1.66-7.22.71-1.28,1.59-2.3,2.55-3.14,1.44-1.25,3.09-2.08,4.35-2.56.63-.24,1.16-.39,1.49-.48l.35-.08-.03-.14.02.14Z"/>
    </g>
    <g id="Traits">
      <rect id="T3" class="cls-1" x="874.62" y="287.07" width="11.13" height="22.26"/>
      <rect id="T2" class="cls-1" x="874.62" y="242.55" width="11.13" height="22.26"/>
      <rect id="T1" class="cls-1" x="874.62" y="198.03" width="11.13" height="22.26"/>
    </g>
    <path id="Dessin_G" data-name="Dessin G" class="cls-1" d="M1411.79,528.45C1410.07,236.29,1172.74,0,880.2,0,587.64,0,350.31,236.29,348.59,528.45h-57.94v11.13h63.51s1052.06,0,1052.06,0h63.51v-11.13h0s-57.94,0-57.94,0ZM772.29,22.34c34.81-7.34,70.91-11.21,107.91-11.21,36.99,0,73.08,3.87,107.89,11.21v45.41l-107.9,78.86-96.42-70.47h81.34v-11.13h-92.82V22.34ZM446.5,528.45c.72-.65,1.46-1.31,2.24-2.02,17.71-15.86,51.51-45.2,80.84-70.54,14.67-12.67,28.23-24.35,38.12-32.86,4.95-4.26,8.97-7.72,11.77-10.12,1.35-1.16,2.41-2.07,3.14-2.7l47.31-7.36,126.11-87.98-17.64,86.42-48.64,9.83-64.37,117.33h-178.88ZM638.07,528.45l58.94-107.45,50.8-10.27,19.95-97.76,110.72,99.69,32.16,7.78,77.62,108h-350.2ZM1001.97,528.45l-84.7-117.84-33.43-8.09-29.07-26.18,28.45-21.67.36.47,115.49-88.72h0l25.41-19.35-33.03,112.99,53.68-5.73,72.43,174.13h-115.58ZM1129.61,528.45l-77.4-186.08-45.41,4.85,30.62-104.78,111.37,100.28,32.3,7.81,140.67,177.91h-192.15ZM1335.94,528.45l-148.51-187.83-33.29-8.05-119.28-107.41-42.57,32.43h0s-.06.05-.06.05l-93.38,71.14,54.7-97.79-9.71-5.43-59.32,106.04h-9.09l-59.32-106.04-9.71,5.43,55.29,98.84-94.03-72.24-6.78,8.83,109.45,84.09-23.97,18.26-81.65-73.52-139.04,97-47.9,7.45-1.2,1.03s-24.88,21.35-54.2,46.69v-61.18c6.11,7.03,13.34,11.19,20.04,13.51,6.91,2.4,13.28,2.94,17.78,2.94,3.94,0,6.46-.42,6.71-.46l-1.47-8.61-.38-2.36s-1.9.3-4.85.3c-4.8,0-12.36-.82-19.52-4.69-3.59-1.94-7.12-4.61-10.31-8.41-3.06-3.64-5.83-8.34-7.98-14.5v-21.43c6.11,7.03,13.34,11.19,20.04,13.51,6.91,2.4,13.28,2.94,17.78,2.94,3.94,0,6.46-.42,6.71-.46l-1.47-8.61-.38-2.36s-1.9.3-4.85.3c-4.8,0-12.36-.82-19.52-4.69-3.59-1.94-7.12-4.61-10.31-8.41-3.06-3.64-5.83-8.34-7.98-14.5v-21.43c6.11,7.03,13.34,11.19,20.04,13.51,6.91,2.4,13.28,2.94,17.78,2.94,3.94,0,6.46-.42,6.71-.46l-1.47-8.61-.38-2.36s-1.9.3-4.85.3c-4.8,0-12.36-.82-19.52-4.69-3.59-1.94-7.12-4.61-10.31-8.41-3.06-3.64-5.83-8.34-7.98-14.5v-21.43c6.11,7.03,13.34,11.19,20.04,13.51,6.91,2.4,13.28,2.94,17.78,2.94,3.94,0,6.46-.42,6.7-.46l-1.47-8.58-.39-2.39s-1.9.3-4.85.3c-4.8,0-12.36-.82-19.52-4.69-3.59-1.94-7.12-4.61-10.31-8.41-3.19-3.8-6.08-8.74-8.27-15.3l-5.28-15.83-5.28,15.83c-2.19,6.56-5.08,11.5-8.27,15.3-4.79,5.68-10.34,8.9-15.71,10.78-5.36,1.87-10.53,2.33-14.12,2.32-1.57,0-2.84-.08-3.68-.17-.42-.04-.74-.08-.93-.11l-.2-.03h-.03s-.39,2.42-.39,2.42l.41-2.42-1.88,10.97c.24.04,2.76.46,6.7.46,5.99,0,15.35-.95,24.79-6.02,4.51-2.43,9.01-5.83,13.02-10.44v21.44c-2.15,6.16-4.92,10.86-7.98,14.5-4.79,5.68-10.34,8.9-15.71,10.78-5.36,1.87-10.53,2.33-14.12,2.32-1.57,0-2.84-.09-3.68-.17-.42-.04-.74-.08-.93-.11l-.2-.03h0s-1.88,10.97-1.88,10.97c.24.04,2.77.46,6.71.46,5.99,0,15.35-.95,24.79-6.02,4.51-2.43,9.01-5.83,13.02-10.44v21.44c-2.15,6.16-4.92,10.86-7.98,14.5-4.79,5.68-10.34,8.9-15.71,10.78-5.36,1.87-10.53,2.33-14.12,2.32-1.57,0-2.84-.09-3.68-.17-.42-.04-.74-.08-.93-.11l-.2-.03h0s-1.88,10.97-1.88,10.97c.24.04,2.77.46,6.71.46,5.99,0,15.35-.95,24.79-6.02,4.51-2.43,9.01-5.83,13.02-10.44v21.44c-2.15,6.16-4.92,10.86-7.98,14.5-4.79,5.68-10.34,8.9-15.71,10.78-5.36,1.87-10.53,2.33-14.12,2.32-1.57,0-2.84-.09-3.68-.17-.42-.04-.74-.08-.93-.11l-.2-.03h0s-1.88,10.97-1.88,10.97c.24.04,2.77.46,6.71.46,5.99,0,15.35-.95,24.79-6.02,4.51-2.43,9.01-5.83,13.02-10.44v70.81c-2.82,2.44-5.65,4.89-8.48,7.34-18.46,15.99-36.91,32.06-50.77,44.29-6.93,6.12-12.71,11.27-16.79,15.01-2.04,1.87-3.66,3.38-4.82,4.52-.09.09-.16.16-.25.25h-70.39c.86-142.49,58.92-271.36,152.43-364.87,67.36-67.36,153.08-116.33,249.01-138.77v48.59s113.46,82.93,113.46,82.93v19.43h11.13v-19.44l113.46-82.93V24.81c95.93,22.44,181.65,71.41,249.02,138.77,93.5,93.51,151.57,222.38,152.42,364.87h-64.72Z"/>
  </g>
  <g id="Texte">
    <g>
      <path class="cls-1" d="M81.63,816.93H0v-1.81c1.93,0,3.47-.09,4.62-.27,1.15-.18,2.02-.57,2.62-1.18.6-.6,1-1.48,1.18-2.62.18-1.15.27-2.74.27-4.8v-101.18c0-1.93-.09-3.5-.27-4.71-.18-1.2-.57-2.11-1.18-2.71-.6-.6-1.48-1-2.62-1.18-1.15-.18-2.69-.27-4.62-.27v-1.81h33.3v1.81c-1.93,0-3.5.09-4.71.27-1.21.18-2.14.57-2.81,1.18-.66.61-1.12,1.48-1.36,2.62-.24,1.15-.36,2.75-.36,4.8v99.73c0,1.09.33,1.9,1,2.44.66.54,1.45.88,2.35,1,.9.12,1.87.15,2.9.09,1.02-.06,1.9-.09,2.62-.09h26.43c3.26,0,6.15-.12,8.69-.36,2.53-.24,4.77-.81,6.7-1.72,1.93-.91,3.65-2.29,5.16-4.16,1.51-1.87,2.99-4.37,4.43-7.51l2.35.54-5.07,21.9Z"/>
      <path class="cls-1" d="M210.86,816.93v-1.81c2.77,0,4.82-.51,6.15-1.54,1.33-1.02,1.33-3.05,0-6.06l-11.22-27.51h-54.48l-10.14,25.34c-1.33,3.14-1.72,5.55-1.18,7.24.54,1.69,2.74,2.53,6.61,2.53v1.81h-25.34v-1.81c1.45-.12,2.68-.54,3.71-1.27,1.02-.72,1.93-1.57,2.72-2.53.78-.96,1.45-2.05,1.99-3.26.54-1.21,1.06-2.41,1.54-3.62l46.34-111.31h9.96l48.15,116.02c1.33,3.26,3.92,5.25,7.78,5.97v1.81h-32.58ZM178.83,712.14l-23.89,59.01h47.78l-23.89-59.01Z"/>
      <path class="cls-1" d="M475.94,753.77c-1.75,1.09-2.62,2.84-2.62,5.25v48.87c-.72.97-1.78,1.84-3.17,2.62-1.39.79-2.87,1.51-4.43,2.17-1.57.67-3.14,1.21-4.71,1.63-1.57.42-2.9.81-3.98,1.18-11.71,3.26-22.99,4.43-33.85,3.53-10.86-.9-20.48-3.89-28.87-8.96-8.39-5.07-15.11-12.19-20.18-21.36-5.07-9.17-7.6-20.33-7.6-33.48,0-9.05,1.51-17.44,4.52-25.16,3.01-7.72,7.27-14.39,12.76-20,5.49-5.61,12.04-10.01,19.64-13.21,7.6-3.2,15.99-4.8,25.16-4.8,7.12,0,14.36.85,21.72,2.53.24.12,1.02.36,2.35.72,1.33.36,2.74.72,4.25,1.09,1.51.36,3.47.85,5.88,1.45.84-.12,1.69-.45,2.53-1,.84-.54,1.33-1.29,1.45-2.26h2.17c0,1.33-.03,3.23-.09,5.7-.06,2.47-.15,5.04-.27,7.69-.12,2.66-.3,5.16-.54,7.51-.24,2.35-.61,4.07-1.09,5.16.12.24.24.45.36.63.12.18.24.39.36.63l-.72-1.27c-3.74-6.52-8.66-11.43-14.75-14.75-6.09-3.32-12.94-4.98-20.54-4.98-8.33,0-15.54,1.48-21.63,4.43-6.09,2.96-11.16,7-15.2,12.13-4.04,5.13-7.03,11.1-8.96,17.92-1.93,6.82-2.9,14.03-2.9,21.63,0,7.12,1,14,2.99,20.63,1.99,6.64,5.46,12.67,10.41,18.1,4.82,5.31,10.32,9.08,16.47,11.31,6.15,2.23,12.73,3.35,19.73,3.35,1.45,0,3.47-.12,6.06-.36,2.59-.24,5.19-.63,7.78-1.18,2.59-.54,5.01-1.29,7.24-2.26,2.23-.96,3.77-2.23,4.62-3.8v-43.08c0-2.05-.36-3.56-1.09-4.52-.72-.96-1.69-1.63-2.9-1.99-1.21-.36-2.53-.51-3.98-.45-1.45.06-2.96.09-4.52.09v-2.53h36.02v1.81c-2.17,0-4.13.54-5.88,1.63ZM467.7,721.91c-.12-.24-.24-.45-.36-.63-.12-.18-.24-.39-.36-.63l.72,1.27Z"/>
      <path class="cls-1" d="M606.16,816.93c-2.9-6.39-5.79-12.16-8.69-17.29-2.9-5.13-6.04-9.92-9.41-14.39-3.38-4.46-7.06-8.75-11.04-12.85-3.98-4.1-8.51-8.38-13.58-12.85l-13.03.18v46.52c0,2.05.12,3.68.36,4.89.24,1.21.66,2.11,1.27,2.71.6.61,1.51.97,2.71,1.09,1.21.12,2.77.18,4.71.18v1.81h-32.94v-1.81c1.81,0,3.29-.09,4.43-.27,1.15-.18,2.02-.57,2.62-1.18s1-1.48,1.18-2.62c.18-1.15.27-2.74.27-4.8v-101.18c0-1.93-.09-3.5-.27-4.71-.18-1.2-.57-2.11-1.18-2.71-.61-.6-1.48-1-2.62-1.18-1.15-.18-2.62-.27-4.43-.27v-1.81h43.26c5.31,0,10.41.57,15.29,1.72,4.89,1.15,9.2,2.99,12.94,5.52,3.74,2.53,6.73,5.85,8.96,9.96,2.23,4.1,3.35,9.17,3.35,15.2,0,4.59-.85,8.6-2.53,12.04-1.69,3.44-3.98,6.33-6.88,8.69-2.9,2.35-6.22,4.25-9.96,5.7-3.74,1.45-7.66,2.47-11.77,3.08,3.5,2.9,6.33,5.37,8.51,7.42,2.17,2.05,4.07,4.01,5.7,5.88,1.63,1.87,3.23,3.8,4.8,5.79,1.57,1.99,3.44,4.32,5.61,6.97,2.41,3.02,4.71,6.43,6.88,10.23s4.19,7.36,6.06,10.68c1.87,3.32,3.59,6.12,5.16,8.42,1.57,2.29,3.08,3.44,4.52,3.44v1.81h-20.27ZM550.42,751.05h8.69c4.34,0,8.6-.39,12.76-1.18,4.16-.78,7.93-2.17,11.31-4.16,3.38-1.99,6.09-4.67,8.15-8.05,2.05-3.38,3.08-7.6,3.08-12.67,0-4.46-.85-8.14-2.53-11.04-1.69-2.9-3.95-5.16-6.79-6.79-2.84-1.63-6.06-2.74-9.68-3.35-3.62-.6-7.3-.91-11.04-.91h-3.62c-1.21,0-2.47.06-3.8.18-1.33.12-2.57.42-3.71.9-1.15.48-2.08,1.15-2.81,1.99v45.07Z"/>
      <path class="cls-1" d="M754.22,816.93v-1.81c2.77,0,4.82-.51,6.15-1.54,1.33-1.02,1.33-3.05,0-6.06l-11.22-27.51h-54.48l-10.14,25.34c-1.33,3.14-1.72,5.55-1.18,7.24.54,1.69,2.74,2.53,6.61,2.53v1.81h-25.34v-1.81c1.45-.12,2.68-.54,3.71-1.27,1.02-.72,1.93-1.57,2.72-2.53.78-.96,1.45-2.05,1.99-3.26.54-1.21,1.06-2.41,1.54-3.62l46.34-111.31h9.96l48.15,116.02c1.33,3.26,3.92,5.25,7.78,5.97v1.81h-32.58ZM722.18,712.14l-23.89,59.01h47.78l-23.89-59.01Z"/>
      <path class="cls-1" d="M908.7,698.38c-1.15,1.45-2.14,3.2-2.99,5.25l-44.34,114.57h-7.42l-46.7-114.21c-.97-2.29-2.14-4.13-3.53-5.52-1.39-1.39-3.35-2.14-5.88-2.26v-1.81h32.04v1.81c-1.21,0-2.35.03-3.44.09-1.09.06-1.99.3-2.71.72-.72.42-1.18,1.06-1.36,1.9-.18.85.03,1.99.63,3.44l36.92,93.03,34.03-89.05c1.33-3.38,1.63-5.85.9-7.42-.72-1.57-3.02-2.47-6.88-2.71v-1.81h26.06v1.81c-2.42,0-4.19.72-5.34,2.17Z"/>
      <path class="cls-1" d="M963.99,816.93v-1.81c2.05,0,3.71-.06,4.98-.18,1.27-.12,2.26-.45,2.99-1s1.2-1.42,1.45-2.62c.24-1.2.36-2.9.36-5.07v-101.18c0-2.17-.12-3.86-.36-5.07-.24-1.21-.72-2.08-1.45-2.62s-1.72-.87-2.99-1c-1.27-.12-2.93-.18-4.98-.18v-1.81h35.11v1.81c-2.05,0-3.71.06-4.98.18-1.27.12-2.26.45-2.99,1s-1.21,1.42-1.45,2.62c-.24,1.21-.36,2.9-.36,5.07v101.18c0,2.17.12,3.86.36,5.07.24,1.21.72,2.08,1.45,2.62s1.72.88,2.99,1c1.27.12,2.92.18,4.98.18v1.81h-35.11Z"/>
      <path class="cls-1" d="M1052.14,814.49c-.6.54-.9,1.3-.9,2.26h-2.17l-.9-26.43.36-.54h1.63c2.17,5.19,5.1,9.35,8.78,12.49,3.68,3.14,7.57,5.4,11.67,6.79,4.1,1.39,8.26,1.96,12.49,1.72,4.22-.24,8.05-1.27,11.49-3.08,3.44-1.81,6.21-4.31,8.33-7.51,2.11-3.2,3.17-6.97,3.17-11.31,0-5.19-1.42-9.53-4.25-13.03-2.84-3.5-6.37-6.67-10.59-9.5-4.23-2.83-8.84-5.55-13.85-8.14-5.01-2.59-9.62-5.49-13.85-8.69-4.23-3.2-7.75-6.94-10.59-11.22-2.84-4.28-4.25-9.62-4.25-16.02,0-4.71,1-8.9,2.99-12.58,1.99-3.68,4.62-6.85,7.87-9.5,3.26-2.65,6.97-4.67,11.13-6.06,4.16-1.39,8.42-2.08,12.76-2.08,2.53,0,5.04.21,7.51.63,2.47.42,4.92,1,7.33,1.72.24.12.9.33,1.99.63,1.09.3,2.26.63,3.53,1,1.27.36,2.44.7,3.53,1,1.09.3,1.69.45,1.81.45,2.05-.24,3.2-1.39,3.44-3.44h1.99c.48,4.47.93,9.05,1.36,13.76.42,4.71.51,9.29.27,13.76h-1.99c-1.57-4.58-3.92-8.39-7.06-11.4-3.14-3.01-6.61-5.31-10.41-6.88-3.8-1.57-7.75-2.35-11.86-2.35s-7.63.72-10.95,2.17c-3.32,1.45-6.04,3.62-8.15,6.52-2.11,2.9-3.17,6.46-3.17,10.68,0,3.26.87,6.13,2.62,8.6,1.75,2.47,3.83,4.74,6.24,6.79,3.14,2.53,6.45,4.89,9.96,7.06,3.5,2.17,7.06,4.23,10.68,6.15l-1.27-.54c3.98,2.05,7.81,4.28,11.49,6.7,3.68,2.42,6.97,5.13,9.86,8.15,2.9,3.02,5.19,6.43,6.88,10.23,1.69,3.8,2.53,8.18,2.53,13.12,0,5.19-1.15,9.81-3.44,13.85-2.29,4.04-5.28,7.45-8.96,10.23-3.68,2.78-7.81,4.89-12.4,6.33-4.59,1.45-9.23,2.17-13.94,2.17-5.07,0-9.9-.61-14.48-1.81-4.59-1.21-9.29-2.47-14.12-3.8-.85.12-1.57.45-2.17,1Z"/>
      <path class="cls-1" d="M1259.2,716.12c-.97-4.82-2.51-8.11-4.62-9.86-2.11-1.75-5.58-2.62-10.41-2.62h-23.53v102.63c0,2.17.12,3.83.36,4.98.24,1.15.72,2.02,1.45,2.62.72.61,1.72.97,2.99,1.09,1.27.12,2.92.18,4.98.18v1.81h-34.93v-1.81c1.93,0,3.53-.06,4.8-.18,1.27-.12,2.26-.48,2.99-1.09.72-.6,1.24-1.48,1.54-2.62.3-1.15.45-2.81.45-4.98v-102.63h-23.89c-4.71,0-8.18.9-10.41,2.71-2.23,1.81-3.83,5.07-4.8,9.77h-1.63l.72-21.72h95.21l.54,21.72h-1.81Z"/>
      <path class="cls-1" d="M1386.62,816.93h-82.54v-1.81c3.74,0,6.09-.51,7.06-1.54.96-1.02,1.45-3.47,1.45-7.33v-101.18c0-3.86-.48-6.3-1.45-7.33-.97-1.02-3.32-1.54-7.06-1.54v-1.81h80.73l.18,18.64h-2.53c-.61-4.58-2.02-7.39-4.25-8.42-2.23-1.02-5.46-1.54-9.68-1.54h-36.56c-2.05,0-3.23.21-3.53.63-.3.42-.45,1.6-.45,3.53v41.45h36.74c1.93,0,3.62-.09,5.07-.27,1.45-.18,2.62-.57,3.53-1.18.9-.6,1.6-1.51,2.08-2.72.48-1.2.84-2.83,1.09-4.89h2.35v27.33h-2.35c-.24-2.17-.61-3.86-1.09-5.07-.48-1.2-1.18-2.14-2.08-2.8-.91-.66-2.05-1.09-3.44-1.27-1.39-.18-3.11-.27-5.16-.27h-36.74v47.24c0,1.09.33,1.9,1,2.44.66.54,1.45.88,2.35,1,.91.12,1.87.15,2.9.09,1.02-.06,1.9-.09,2.62-.09h29.87c2.9,0,5.4-.15,7.51-.45,2.11-.3,4.01-.93,5.7-1.9,1.69-.96,3.2-2.26,4.52-3.89,1.33-1.63,2.59-3.83,3.8-6.61h2.9l-4.53,21.54Z"/>
      <path class="cls-1" d="M1514.77,816.93c-2.9-6.39-5.79-12.16-8.69-17.29-2.9-5.13-6.04-9.92-9.41-14.39-3.38-4.46-7.06-8.75-11.04-12.85-3.98-4.1-8.51-8.38-13.58-12.85l-13.03.18v46.52c0,2.05.12,3.68.36,4.89.24,1.21.66,2.11,1.27,2.71.6.61,1.51.97,2.71,1.09,1.21.12,2.77.18,4.71.18v1.81h-32.94v-1.81c1.81,0,3.29-.09,4.43-.27,1.15-.18,2.02-.57,2.62-1.18s1-1.48,1.18-2.62c.18-1.15.27-2.74.27-4.8v-101.18c0-1.93-.09-3.5-.27-4.71-.18-1.2-.57-2.11-1.18-2.71-.61-.6-1.48-1-2.62-1.18-1.15-.18-2.62-.27-4.43-.27v-1.81h43.26c5.31,0,10.41.57,15.29,1.72,4.89,1.15,9.2,2.99,12.94,5.52,3.74,2.53,6.73,5.85,8.96,9.96,2.23,4.1,3.35,9.17,3.35,15.2,0,4.59-.85,8.6-2.53,12.04-1.69,3.44-3.98,6.33-6.88,8.69-2.9,2.35-6.22,4.25-9.96,5.7-3.74,1.45-7.66,2.47-11.77,3.08,3.5,2.9,6.33,5.37,8.51,7.42,2.17,2.05,4.07,4.01,5.7,5.88,1.63,1.87,3.23,3.8,4.8,5.79,1.57,1.99,3.44,4.32,5.61,6.97,2.41,3.02,4.71,6.43,6.88,10.23s4.19,7.36,6.06,10.68c1.87,3.32,3.59,6.12,5.16,8.42,1.57,2.29,3.08,3.44,4.52,3.44v1.81h-20.27ZM1459.02,751.05h8.69c4.34,0,8.6-.39,12.76-1.18,4.16-.78,7.93-2.17,11.31-4.16,3.38-1.99,6.09-4.67,8.15-8.05,2.05-3.38,3.08-7.6,3.08-12.67,0-4.46-.85-8.14-2.53-11.04-1.69-2.9-3.95-5.16-6.79-6.79-2.84-1.63-6.06-2.74-9.68-3.35-3.62-.6-7.3-.91-11.04-.91h-3.62c-1.21,0-2.47.06-3.8.18-1.33.12-2.57.42-3.71.9-1.15.48-2.08,1.15-2.81,1.99v45.07Z"/>
      <path class="cls-1" d="M1586.26,816.93v-1.81c2.05,0,3.71-.06,4.98-.18,1.27-.12,2.26-.45,2.99-1s1.2-1.42,1.45-2.62c.24-1.2.36-2.9.36-5.07v-101.18c0-2.17-.12-3.86-.36-5.07-.24-1.21-.72-2.08-1.45-2.62s-1.72-.87-2.99-1c-1.27-.12-2.93-.18-4.98-.18v-1.81h35.11v1.81c-2.05,0-3.71.06-4.98.18-1.27.12-2.26.45-2.99,1s-1.21,1.42-1.45,2.62c-.24,1.21-.36,2.9-.36,5.07v101.18c0,2.17.12,3.86.36,5.07.24,1.21.72,2.08,1.45,2.62s1.72.88,2.99,1c1.27.12,2.92.18,4.98.18v1.81h-35.11Z"/>
      <path class="cls-1" d="M1757.85,816.93h-82.54v-1.81c3.74,0,6.09-.51,7.06-1.54.96-1.02,1.45-3.47,1.45-7.33v-101.18c0-3.86-.48-6.3-1.45-7.33-.97-1.02-3.32-1.54-7.06-1.54v-1.81h80.73l.18,18.64h-2.53c-.61-4.58-2.02-7.39-4.25-8.42-2.23-1.02-5.46-1.54-9.68-1.54h-36.56c-2.05,0-3.23.21-3.53.63-.3.42-.45,1.6-.45,3.53v41.45h36.74c1.93,0,3.62-.09,5.07-.27,1.45-.18,2.62-.57,3.53-1.18.9-.6,1.6-1.51,2.08-2.72.48-1.2.84-2.83,1.09-4.89h2.35v27.33h-2.35c-.24-2.17-.61-3.86-1.09-5.07-.48-1.2-1.18-2.14-2.08-2.8-.91-.66-2.05-1.09-3.44-1.27-1.39-.18-3.11-.27-5.16-.27h-36.74v47.24c0,1.09.33,1.9,1,2.44.66.54,1.45.88,2.35,1,.91.12,1.87.15,2.9.09,1.02-.06,1.9-.09,2.62-.09h29.87c2.9,0,5.4-.15,7.51-.45,2.11-.3,4.01-.93,5.7-1.9,1.69-.96,3.2-2.26,4.52-3.89,1.33-1.63,2.59-3.83,3.8-6.61h2.9l-4.53,21.54Z"/>
    </g>
  </g>
</svg>