<?xml version="1.0" encoding="UTF-8"?>
<svg xmlns="http://www.w3.org/2000/svg" viewBox="0 0 1000 1000">
  <defs>
    <style>
      .cls-1 {
        font-family: Timeless-Normal, Timeless;
        font-size: 86.42px;
      }

      .cls-1, .cls-2 {
        fill: #fff;
      }

      .cls-3 {
        letter-spacing: .22em;
      }

      .cls-4 {
        letter-spacing: .21em;
      }

      .cls-5 {
        letter-spacing: .21em;
      }

      .cls-6 {
        letter-spacing: .16em;
      }

      .cls-7 {
        letter-spacing: .18em;
      }

      .cls-8 {
        letter-spacing: .18em;
      }

      .cls-9 {
        letter-spacing: .04em;
      }
    </style>
  </defs>
  <g id="Dessin">
    <polyline id="ligne" class="cls-2" points="132.95 595.29 867.05 595.29 867.05 587.08 132.95 587.08"/>
    <g id="Oiseaux">
      <path id="Oiseau_G2" data-name="Oiseau G2" class="cls-2" d="M347.3,307.66c-.34-.17-5.5-3.03-12.86-3.06-3.28,0-7.02.61-10.78,2.37-1.52.71-3.04,1.62-4.53,2.73-.58-2.14-1.37-4.08-2.33-5.81-1.56-2.82-3.52-5.07-5.54-6.82-3.04-2.64-6.22-4.19-8.66-5.12-2.44-.92-4.16-1.22-4.36-1.25l-1.33,8.1.41-2.5-.43,2.5h.03c.42.07,4.47.97,8.07,3.75,1.81,1.39,3.53,3.21,4.82,5.68,1.29,2.47,2.18,5.62,2.19,9.86v.33s7.36,2.55,7.36,2.55c2.61-3.39,5.25-5.37,7.79-6.56,2.53-1.19,5-1.59,7.29-1.6,2.56,0,4.87.53,6.5,1.07.82.27,1.46.53,1.88.72.21.09.36.17.45.21l.09.04h0s1.12-2.08,1.12-2.08l2.82-5.12h0Z"/>
      <path id="Oiseau._G1" data-name="Oiseau. G1" class="cls-2" d="M380.89,259.7c-.34-.17-3.64-2.01-8.5-2.04-2.17,0-4.66.4-7.16,1.58-.38.18-.76.38-1.14.6-.25-.61-.53-1.2-.83-1.75-1.04-1.87-2.34-3.37-3.68-4.54-2.02-1.75-4.09-2.76-5.69-3.37-1.6-.6-2.73-.8-2.93-.83l-1.33,8.1.36-2.19-.4,2.19.09.02c.47.09,2.6.68,4.33,2.13.87.72,1.66,1.62,2.26,2.83.59,1.22,1.03,2.77,1.03,4.97v.18s7.36,2.54,7.36,2.54c1.42-1.85,2.79-2.84,4.06-3.44,1.27-.59,2.5-.8,3.67-.8,1.31,0,2.53.28,3.38.56.43.14.76.28.97.37l.21.1h.02s.98-1.84.98-1.84l2.95-5.36h0Z"/>
      <path id="Oiseau_D2" data-name="Oiseau D2" class="cls-2" d="M722.24,308.31l.37,2.26-1.33-8.1c-.35.07-5.52.91-10.98,4.77-2.72,1.93-5.5,4.67-7.58,8.43-.96,1.72-1.75,3.67-2.33,5.81-1.49-1.11-3.01-2.02-4.53-2.73-3.76-1.76-7.5-2.37-10.78-2.37-7.37.03-12.52,2.9-12.86,3.06l2.82,5.14,1.11,2.07h.02s0-.01,0-.01l-.02-.03.02.03h.02c.41-.23,4.25-2.07,8.89-2.05,2.29,0,4.76.41,7.29,1.6,2.53,1.19,5.18,3.16,7.79,6.56l7.36-2.55v-.33c0-4.45.99-7.69,2.38-10.22,1.05-1.89,2.35-3.39,3.74-4.6,2.09-1.82,4.41-2.97,6.18-3.64.89-.34,1.63-.55,2.13-.68.25-.06.44-.11.55-.13l.11-.02h.01s-.39-2.26-.39-2.26Z"/>
      <path id="oiseau_D1" data-name="oiseau D1" class="cls-2" d="M669.91,269.22l-1.33-8.1c-.35.07-3.67.6-7.27,3.14-1.79,1.27-3.65,3.09-5.03,5.6-.31.55-.58,1.14-.83,1.75-.38-.21-.76-.42-1.14-.6-2.5-1.17-4.99-1.58-7.16-1.58-4.87.03-8.16,1.87-8.5,2.04l2.99,5.43-.05-.08.98,1.87s.12-.07.36-.17c.71-.31,2.38-.88,4.22-.88,1.17,0,2.4.21,3.67.8,1.27.6,2.64,1.6,4.06,3.44l7.36-2.55v-.17c0-2.42.53-4.06,1.22-5.33.53-.95,1.17-1.69,1.88-2.31,1.06-.92,2.28-1.54,3.21-1.89.46-.18.85-.29,1.1-.35l.26-.06-.02-.1.02.1Z"/>
    </g>
    <g id="Traits">
      <rect id="T3" class="cls-2" x="495.89" y="376.21" width="8.21" height="16.42"/>
      <rect id="T2" class="cls-2" x="495.89" y="343.36" width="8.21" height="16.42"/>
      <rect id="T1" class="cls-2" x="495.89" y="310.52" width="8.21" height="16.42"/>
    </g>
    <path id="Dessin_G" data-name="Dessin G" class="cls-2" d="M892.21,554.3c-1.27-215.55-176.37-389.88-392.2-389.89-215.85,0-390.95,174.33-392.22,389.89h-42.75v8.21h46.86s776.21,0,776.21,0h46.86v-8.21h0s-42.75,0-42.75,0ZM420.39,180.89c25.68-5.41,52.31-8.27,79.62-8.27,27.29,0,53.92,2.85,79.6,8.27v33.51l-79.61,58.19-71.14-51.99h60.01v-8.21h-68.49v-31.48ZM180.02,554.3c.53-.48,1.08-.97,1.66-1.49,13.07-11.7,38-33.35,59.64-52.05,10.82-9.35,20.82-17.97,28.12-24.25,3.65-3.14,6.62-5.69,8.68-7.46,1-.86,1.78-1.53,2.32-1.99l34.91-5.43,93.04-64.91-13.01,63.76-35.89,7.25-47.49,86.57h-131.98ZM321.36,554.3l43.49-79.27,37.48-7.58,14.72-72.12,81.69,73.55,23.73,5.74,57.27,79.68h-258.37ZM589.85,554.3l-62.49-86.94-24.67-5.97-21.45-19.31,20.99-15.99.27.35,85.21-65.46h0l18.74-14.28-24.37,83.36,39.6-4.23,53.44,128.47h-85.27ZM684.02,554.3l-57.1-137.29-33.51,3.58,22.59-77.3,82.17,73.99,23.83,5.76,103.78,131.27h-141.76ZM836.25,554.3l-109.57-138.58-24.56-5.94-88.01-79.25-31.41,23.93h0s-.04.03-.04.03l-68.9,52.49,40.36-72.15-7.17-4.01-43.77,78.24h-6.7l-43.77-78.24-7.17,4.01,40.79,72.92-69.38-53.3-5,6.51,80.75,62.04-17.69,13.47-60.24-54.25-102.58,71.57-35.34,5.5-.89.76s-18.35,15.75-39.99,34.45v-45.14c4.51,5.19,9.84,8.26,14.78,9.97,5.1,1.77,9.8,2.17,13.12,2.17,2.91,0,4.77-.31,4.95-.34l-1.09-6.35-.28-1.74s-1.4.22-3.58.22c-3.54,0-9.12-.6-14.4-3.46-2.65-1.43-5.25-3.4-7.61-6.2-2.26-2.69-4.3-6.16-5.89-10.7v-15.81c4.51,5.19,9.84,8.26,14.78,9.97,5.1,1.77,9.8,2.17,13.12,2.17,2.91,0,4.77-.31,4.95-.34l-1.09-6.35-.28-1.74s-1.4.22-3.58.22c-3.54,0-9.12-.6-14.4-3.46-2.65-1.43-5.25-3.4-7.61-6.2-2.26-2.69-4.3-6.16-5.89-10.7v-15.81c4.51,5.19,9.84,8.26,14.78,9.97,5.1,1.77,9.8,2.17,13.12,2.17,2.91,0,4.77-.31,4.95-.34l-1.09-6.35-.28-1.74s-1.4.22-3.58.22c-3.54,0-9.12-.6-14.4-3.46-2.65-1.43-5.25-3.4-7.61-6.2-2.26-2.69-4.3-6.16-5.89-10.7v-15.81c4.51,5.19,9.84,8.26,14.78,9.97,5.1,1.77,9.8,2.17,13.12,2.17,2.91,0,4.77-.31,4.94-.34l-1.08-6.33-.29-1.76s-1.4.22-3.58.22c-3.54,0-9.12-.6-14.4-3.46-2.65-1.43-5.25-3.4-7.61-6.2-2.36-2.8-4.49-6.45-6.1-11.29l-3.9-11.68-3.89,11.68c-1.62,4.84-3.75,8.49-6.1,11.29-3.54,4.19-7.63,6.56-11.59,7.95-3.95,1.38-7.77,1.72-10.42,1.71-1.16,0-2.09-.06-2.72-.12-.31-.03-.54-.06-.69-.08l-.15-.02h-.02s-.29,1.79-.29,1.79l.31-1.79-1.38,8.09c.18.03,2.04.34,4.95.34,4.42,0,11.33-.7,18.29-4.44,3.33-1.79,6.65-4.3,9.61-7.71v15.82c-1.59,4.54-3.63,8.01-5.89,10.7-3.54,4.19-7.63,6.56-11.59,7.95-3.95,1.38-7.77,1.72-10.42,1.71-1.16,0-2.09-.06-2.72-.12-.31-.03-.54-.06-.69-.08l-.15-.02h0s-1.39,8.09-1.39,8.09c.18.03,2.04.34,4.95.34,4.42,0,11.33-.7,18.29-4.44,3.33-1.79,6.65-4.3,9.61-7.7v15.82c-1.59,4.54-3.63,8.01-5.89,10.7-3.54,4.19-7.63,6.56-11.59,7.95-3.95,1.38-7.77,1.72-10.42,1.71-1.16,0-2.09-.06-2.72-.12-.31-.03-.54-.06-.69-.08l-.15-.02h0s-1.39,8.09-1.39,8.09c.18.03,2.04.34,4.95.34,4.42,0,11.33-.7,18.29-4.44,3.33-1.79,6.65-4.3,9.61-7.7v15.82c-1.59,4.54-3.63,8.01-5.89,10.7-3.54,4.19-7.63,6.56-11.59,7.95-3.95,1.38-7.77,1.72-10.42,1.71-1.16,0-2.09-.06-2.72-.12-.31-.03-.54-.06-.69-.08l-.15-.02h0s-1.39,8.09-1.39,8.09c.18.03,2.04.34,4.95.34,4.42,0,11.33-.7,18.29-4.44,3.33-1.79,6.65-4.3,9.61-7.7v52.24c-2.08,1.8-4.17,3.61-6.26,5.42-13.62,11.8-27.23,23.65-37.46,32.68-5.11,4.51-9.38,8.32-12.39,11.07-1.51,1.38-2.7,2.49-3.56,3.33-.07.07-.12.12-.18.18h-51.93c.63-105.13,43.47-200.21,112.46-269.2,49.7-49.7,112.94-85.82,183.72-102.38v35.85s83.71,61.19,83.71,61.19v14.34h8.21v-14.34l83.71-61.19v-35.85c70.78,16.56,134.02,52.69,183.72,102.38,68.98,68.99,111.83,164.07,112.46,269.2h-47.75Z"/>
  </g>
  <g id="Texte">
    <text class="cls-1" transform="translate(71.91 731.05)"><tspan class="cls-6" x="0" y="0">LA G</tspan><tspan class="cls-8" x="250.97" y="0">R</tspan><tspan class="cls-9" x="319.76" y="0">A</tspan><tspan class="cls-4" x="383.62" y="0">V</tspan><tspan class="cls-6" x="460.28" y="0">IS</tspan><tspan class="cls-7" x="558.63" y="0">T</tspan><tspan class="cls-6" x="622.41" y="0">E</tspan><tspan class="cls-3" x="684.8" y="0">R</tspan><tspan class="cls-5" x="757.39" y="0">I</tspan><tspan class="cls-6" x="799.65" y="0">E</tspan></text>
  </g>
</svg>